<svg width="20" height="20" viewBox="0 0 20 20" fill="none" xmlns="http://www.w3.org/2000/svg">
<path fill-rule="evenodd" clip-rule="evenodd" d="M3.28418 1.12317C3.21051 1.16071 3.11383 1.24106 3.06934 1.30172C2.98863 1.41172 2.9884 1.425 2.97813 6.36032C2.97082 9.85614 2.98023 11.3388 3.01023 11.4115C3.03359 11.468 3.10531 11.5647 3.16961 11.6263L3.28652 11.7383H9.99957H16.7126L16.8171 11.6407C17.0448 11.428 17.0314 11.7534 17.0313 6.41801C17.0313 1.8168 17.027 1.49543 16.963 1.37C16.9254 1.29633 16.8451 1.19965 16.7844 1.15516C16.6755 1.07524 16.6379 1.07415 13.733 1.06379C10.8989 1.05368 10.7885 1.05598 10.7007 1.12711C10.5744 1.22938 10.5739 1.46563 10.6998 1.56758C10.7861 1.6375 10.9132 1.64067 13.6178 1.64067H16.4455V3.80883V5.97704L12.9636 5.96704L9.48172 5.95708L9.42777 5.74223C9.33227 5.36176 9.14941 5.04606 8.85191 4.74782C8.40242 4.29723 7.93004 4.10161 7.29145 4.10161C6.29356 4.10161 5.38246 4.82192 5.1841 5.76774L5.14027 5.97661H4.34758H3.55484V3.80864V1.64067H6.57899C8.24227 1.64067 9.63289 1.62926 9.66926 1.61528C9.84317 1.54856 9.85492 1.18333 9.68613 1.09297C9.64121 1.06895 8.46277 1.05477 6.51641 1.05481C3.64391 1.05485 3.40836 1.05985 3.28418 1.12317ZM7.10953 2.46098C7.04242 2.52809 7.03141 2.59118 7.03141 2.90868C7.03141 3.23856 7.04059 3.2868 7.11691 3.3579C7.22488 3.45848 7.39938 3.4602 7.49797 3.36161C7.65754 3.20204 7.65805 2.58098 7.49871 2.45196C7.38539 2.3602 7.20617 2.36434 7.10953 2.46098ZM5.03922 3.00786C4.99184 3.05524 4.96109 3.13805 4.96109 3.21836C4.96109 3.32911 4.99984 3.38825 5.19777 3.57969C5.32793 3.70559 5.46875 3.82129 5.51066 3.8368C5.61082 3.87387 5.76609 3.81254 5.81809 3.71543C5.91035 3.54301 5.86844 3.43344 5.61215 3.17711C5.33781 2.90282 5.1884 2.85868 5.03922 3.00786ZM9.00004 3.18333C8.74559 3.44157 8.70231 3.5486 8.78773 3.70821C8.84785 3.82055 9.0373 3.88313 9.14699 3.82688C9.27941 3.75895 9.56707 3.47543 9.63527 3.34563C9.74031 3.14571 9.59434 2.92973 9.35418 2.92973C9.27762 2.92973 9.18363 2.99704 9.00004 3.18333ZM6.74488 4.78313C6.30418 4.96434 6.03246 5.21829 5.84238 5.62665C5.66422 6.00938 5.52723 5.97661 7.30484 5.97661C9.09016 5.97661 8.94914 6.01293 8.75512 5.60278C8.47406 5.00872 7.95738 4.68653 7.28895 4.68848C7.04617 4.68918 6.91992 4.71114 6.74488 4.78313ZM1.07438 5.8934C1.00992 5.93344 0.741876 6.18665 0.478673 6.45614C-0.151874 7.1018 -0.152851 7.03903 0.498204 7.70282C1.13426 8.35129 1.24098 8.41122 1.4277 8.22446C1.6125 8.03969 1.56953 7.93297 1.12691 7.47805L0.730235 7.07036L1.12691 6.66266C1.56953 6.20774 1.6125 6.10102 1.4277 5.91625C1.31297 5.80153 1.23094 5.79622 1.07438 5.8934ZM18.5726 5.91625C18.3878 6.10102 18.4308 6.20774 18.8734 6.66266L19.2701 7.07036L18.8734 7.47805C18.4308 7.93297 18.3878 8.03969 18.5726 8.22446C18.7587 8.41059 18.8636 8.35192 19.5021 7.705C19.9351 7.26629 20.0002 7.18372 20.0002 7.07301C20.0002 6.9625 19.9344 6.87868 19.5021 6.4379C18.8661 5.78942 18.7593 5.7295 18.5726 5.91625ZM3.55484 8.18364V9.80473H4.82695C5.64891 9.80473 6.12645 9.81938 6.17649 9.84618C6.36383 9.94645 6.34621 10.2563 6.14801 10.3465C6.0825 10.3764 5.64746 10.3907 4.80301 10.3907H3.55484V10.7813V11.1719H10.0002H16.4455V9.62813V8.08434L12.9522 8.09493C9.47336 8.10547 9.45852 8.10586 9.34871 8.1875C9.19316 8.30313 9.18043 8.47973 9.31969 8.58926C9.40914 8.65965 9.47762 8.67196 9.78082 8.67215C10.1965 8.67239 10.348 8.70782 10.5903 8.86149C11.111 9.19172 11.0026 9.97247 10.3908 10.2983C10.2657 10.3649 10.1308 10.3721 8.81149 10.3827C7.25891 10.3952 7.18918 10.3877 7.11113 10.1992C7.06293 10.0829 7.10383 9.91625 7.195 9.85735C7.2232 9.83915 7.90258 9.81547 8.70477 9.80473L10.1633 9.7852L10.2575 9.67559C10.373 9.54125 10.3768 9.44895 10.2709 9.35305C10.2056 9.29399 10.102 9.27516 9.73375 9.25543C9.10355 9.22168 8.87676 9.10758 8.71012 8.74043C8.51391 8.30817 8.72938 7.80149 9.19938 7.58993C9.34555 7.52411 9.58402 7.51887 12.9005 7.50864L16.4455 7.49766V7.03012V6.56254H10.0002H3.55484V8.18364ZM0.902891 13.6093C0.702891 13.7201 0.706134 13.677 0.704649 16.2422C0.703165 18.8517 0.70086 18.8237 0.92254 18.908C0.98129 18.9303 1.99348 18.9454 3.43801 18.9454H5.85516L5.96477 18.8511L6.07438 18.7568L6.085 16.3222C6.09281 14.5387 6.08352 13.8583 6.05024 13.7779C5.95602 13.5505 6.005 13.5546 3.39078 13.5561C1.47824 13.5572 0.977462 13.5679 0.902891 13.6093ZM7.47504 13.593C7.25934 13.6812 7.26578 13.5991 7.26578 16.2617V18.717L7.37996 18.8312L7.49414 18.9454H9.93555H12.377L12.4971 18.8442L12.6173 18.7431V16.2683V13.7935L12.5231 13.6839L12.4288 13.5743L9.99379 13.5665C8.65453 13.5623 7.52109 13.5742 7.47504 13.593ZM14.0902 13.6171C14.0301 13.6497 13.9642 13.7204 13.9437 13.7743C13.9215 13.8327 13.9064 14.8523 13.9064 16.2947V18.717L14.0206 18.8312L14.1348 18.9454H16.5571C18.005 18.9454 19.019 18.9303 19.0778 18.908C19.2991 18.8238 19.297 18.848 19.297 16.2773C19.297 14.6513 19.2836 13.8793 19.2537 13.7938C19.1684 13.5489 19.2319 13.5546 16.5939 13.5563C14.5303 13.5577 14.1843 13.5661 14.0902 13.6171ZM1.28922 15.2202V16.2998L1.48008 16.1213C1.68156 15.9328 1.86555 15.868 2.06027 15.9169C2.12379 15.9328 2.3682 16.1422 2.65742 16.4283L3.14703 16.9128L3.7118 16.347C4.5102 15.5472 4.59914 15.5311 5.16488 16.0847L5.50797 16.4204V15.2806V14.1407H3.39859H1.28922V15.2202ZM7.85172 15.2202V16.2998L8.04367 16.1203C8.25809 15.9197 8.3702 15.8775 8.58441 15.9166C8.70496 15.9386 8.81594 16.0296 9.21641 16.4345L9.70219 16.9256L10.2516 16.3548C10.5537 16.0409 10.8504 15.7659 10.9109 15.7436C11.1868 15.6422 11.4284 15.7567 11.7922 16.1614L12.0299 16.4258L12.0307 15.2832L12.0314 14.1407H9.94156H7.85172V15.2202ZM14.4923 15.2202V16.2998L14.6843 16.1203C14.8989 15.9195 15.0112 15.8773 15.225 15.9171C15.344 15.9393 15.4621 16.0343 15.8593 16.4279L16.3475 16.9113L16.9336 16.3298C17.2908 15.9754 17.5617 15.7379 17.6274 15.7215C17.8603 15.6633 17.9996 15.7316 18.3635 16.0823L18.7111 16.4174V15.2791V14.1407H16.6017H14.4923V15.2202ZM4.07043 16.8102C3.80832 17.0753 3.59391 17.309 3.59391 17.3296C3.59391 17.3501 3.82981 17.5902 4.11816 17.8632L4.64238 18.3594H5.0752H5.50797V17.8034V17.2473L5.04961 16.7877C4.7975 16.535 4.58125 16.3282 4.56906 16.3282C4.55691 16.3282 4.3325 16.5451 4.07043 16.8102ZM10.5949 16.8347L10.1154 17.332L10.6445 17.8457L11.1736 18.3594H11.6025H12.0314V17.8034V17.2473L11.573 16.7877C11.3209 16.535 11.1056 16.3302 11.0945 16.3328C11.0834 16.3353 10.8586 16.5612 10.5949 16.8347ZM17.2528 16.8294L16.7527 17.3307L17.2924 17.8438L17.8322 18.3569L18.2716 18.3582L18.7111 18.3594L18.7105 17.8223L18.71 17.2852L18.2579 16.8067C18.0093 16.5435 17.794 16.3282 17.7794 16.3282C17.7648 16.3282 17.5279 16.5537 17.2528 16.8294ZM1.59047 16.8527L1.28922 17.1818V17.7706V18.3594H2.53133H3.77344L2.85254 17.4415C2.34606 16.9366 1.92266 16.5235 1.91168 16.5235C1.9007 16.5235 1.75617 16.6716 1.59047 16.8527ZM8.15356 16.8271L7.85172 17.1307V17.745V18.3594H9.08395H10.3162L9.39098 17.4415C8.88211 16.9366 8.46344 16.5235 8.46055 16.5235C8.4577 16.5235 8.31953 16.6601 8.15356 16.8271ZM14.7942 16.8271L14.4923 17.1307V17.745V18.3594H15.7306H16.9688L16.0529 17.4416C15.5491 16.9368 15.1277 16.5238 15.1164 16.5236C15.1052 16.5236 14.9602 16.6601 14.7942 16.8271Z" fill="white"/>
</svg>
