<svg width="20" height="20" viewBox="0 0 20 20" fill="none" xmlns="http://www.w3.org/2000/svg">
<path fill-rule="evenodd" clip-rule="evenodd" d="M0.895615 0.586026C0.642256 0.629307 0.421552 0.75255 0.260537 0.940675C-0.0190726 1.26732 0.000302395 0.742823 0.000302395 7.98825C0.000302395 15.2415 -0.0196195 14.7085 0.263935 15.0398C0.342138 15.1311 0.49499 15.2473 0.603584 15.2979L0.801084 15.3898L3.99503 15.3902L7.18901 15.3906L7.17862 16.5086L7.16827 17.6265L6.60979 17.8909C6.30265 18.0363 6.01698 18.1863 5.97503 18.2243C5.90698 18.2859 5.89874 18.3469 5.89874 18.789C5.89874 19.2434 5.90561 19.2909 5.98097 19.3592C6.06069 19.4313 6.18358 19.4336 10.0078 19.4336H13.9525L14.0272 19.3413C14.0916 19.2618 14.1019 19.1836 14.1019 18.7712C14.1019 18.3618 14.0919 18.2843 14.032 18.2301C13.9936 18.1953 13.7035 18.042 13.3875 17.8893L12.8128 17.6118V16.5012V15.3906H16.0083H19.2037L19.4066 15.2895C19.6392 15.1736 19.8603 14.9355 19.9257 14.7306C19.9505 14.6532 19.9861 14.5731 20.005 14.5527C20.0494 14.5047 20.0505 1.35567 20.0061 1.3831C19.9878 1.39442 19.9527 1.33646 19.9281 1.25435C19.8635 1.0386 19.6092 0.769151 19.367 0.659698L19.1605 0.566378L10.1175 0.560909C5.14386 0.557901 0.994013 0.569229 0.895615 0.586026ZM0.821396 1.1231C0.746631 1.16064 0.645537 1.2511 0.596787 1.32411L0.508115 1.45685V6.95888V12.4609H10.0003H19.4925V6.95888V1.45685L19.4038 1.32411C19.3551 1.2511 19.254 1.16064 19.1792 1.1231C19.051 1.05864 18.5317 1.05478 10.0003 1.05478C1.4689 1.05478 0.949638 1.05864 0.821396 1.1231ZM0.019404 7.98825C0.019404 11.6191 0.0239743 13.0987 0.0295993 11.2762C0.0352243 9.45368 0.0352243 6.48298 0.0295993 4.67462C0.0239743 2.86626 0.019404 4.35739 0.019404 7.98825ZM2.60128 2.10567C2.50202 2.21536 2.53245 2.4263 2.65655 2.48872C2.79987 2.56087 17.2007 2.56087 17.3441 2.48872C17.4682 2.4263 17.4986 2.21536 17.3993 2.10567C17.3335 2.03294 17.1624 2.03122 10.0003 2.03122C2.83819 2.03122 2.6671 2.03294 2.60128 2.10567ZM12.1353 3.56493C12.0575 3.62181 9.76593 9.67138 9.76593 9.81985C9.76593 10.0179 10.0339 10.1188 10.1667 9.97067C10.2481 9.88005 12.5003 3.8695 12.5003 3.74306C12.5003 3.5586 12.2866 3.45431 12.1353 3.56493ZM2.86077 4.77458C2.81198 4.7981 2.7628 4.85423 2.75147 4.89927C2.74019 4.94435 2.73616 5.61384 2.74257 6.38708L2.75421 7.79294L2.86241 8.01333C3.06815 8.43224 3.51265 8.73196 3.99061 8.77403C4.5696 8.82497 5.15901 8.4488 5.37933 7.88767C5.43819 7.73774 5.44894 7.53232 5.46038 6.33837L5.47362 4.96192L5.37546 4.86376C5.25616 4.74446 5.19804 4.74126 5.06417 4.84657L4.96124 4.92751L4.96101 6.26259C4.96089 7.10735 4.94511 7.65501 4.91808 7.75388C4.85476 7.98528 4.55866 8.25755 4.30386 8.31868C4.19401 8.34505 4.03737 8.35532 3.95577 8.34153C3.61921 8.28466 3.31726 8.00224 3.24085 7.67286C3.22128 7.58853 3.2046 6.93064 3.20378 6.21091C3.20292 5.49118 3.18933 4.88298 3.17354 4.85935C3.14702 4.81962 2.99007 4.72314 2.96186 4.72919C2.95507 4.73064 2.9096 4.75107 2.86077 4.77458ZM6.52319 4.79724C6.47511 4.83618 6.43585 4.91169 6.43585 4.96521C6.43585 5.01872 6.6219 5.44521 6.84936 5.91298L7.26284 6.76353L6.8264 7.63743C6.43831 8.4145 6.39421 8.52337 6.42827 8.62017C6.47929 8.76532 6.64159 8.82364 6.76487 8.7411C6.81679 8.7063 7.00499 8.39103 7.2039 8.00556L7.55202 7.33087L7.8819 7.99157C8.06331 8.35497 8.23897 8.68306 8.27225 8.72067C8.40862 8.87481 8.67218 8.75673 8.67218 8.54146C8.67218 8.48388 8.48554 8.06376 8.25737 7.6079L7.84257 6.77899L8.28276 5.89595C8.75327 4.95212 8.77612 4.86454 8.57561 4.77321C8.37636 4.68243 8.31487 4.75185 7.9246 5.5081L7.5589 6.21681L7.2221 5.52364C6.82421 4.70474 6.74241 4.61974 6.52319 4.79724ZM13.2592 4.76704C13.0816 4.83274 13.0811 4.83747 13.0938 6.33482L13.1058 7.75388L13.2101 7.97638C13.3429 8.25978 13.5933 8.51024 13.8891 8.65548C14.0912 8.75466 14.1646 8.76939 14.4534 8.76864C14.7283 8.76794 14.8233 8.75025 15.005 8.66571C15.313 8.52247 15.5253 8.31567 15.6737 8.01431L15.8011 7.75575L15.8127 6.33415C15.8232 5.04032 15.8183 4.90591 15.7578 4.83907C15.6904 4.76458 15.5269 4.74243 15.4422 4.7963C15.3297 4.86782 15.3128 5.07056 15.3128 6.35173C15.3128 7.56173 15.3073 7.67017 15.2383 7.80427C15.0799 8.11216 14.8047 8.28165 14.4651 8.28036C14.088 8.27892 13.7903 8.08958 13.6547 7.76489C13.6039 7.64317 13.5941 7.40271 13.5941 6.27946C13.5941 5.16376 13.5844 4.92552 13.5367 4.85728C13.4687 4.76024 13.367 4.72716 13.2592 4.76704ZM16.8992 4.82544C16.8662 4.85837 16.829 4.94185 16.8164 5.01099C16.8038 5.08013 16.7987 5.92489 16.8051 6.88821L16.8167 8.63974L16.9089 8.71439C17.0272 8.81017 17.1287 8.80903 17.2269 8.71091C17.3028 8.63497 17.305 8.58071 17.305 6.76384C17.305 5.00286 17.3008 4.89114 17.2335 4.83024C17.144 4.74919 16.9778 4.74681 16.8992 4.82544ZM2.65655 11.105C2.53245 11.1674 2.50202 11.3783 2.60128 11.488C2.6671 11.5608 2.83819 11.5625 10.0003 11.5625C17.1624 11.5625 17.3335 11.5608 17.3993 11.488C17.4986 11.3783 17.4682 11.1674 17.3441 11.105C17.2666 11.066 15.7442 11.0558 10.0003 11.0558C4.25644 11.0558 2.73397 11.066 2.65655 11.105ZM9.94171 13.1331C9.33065 13.3466 9.21706 14.1676 9.74698 14.5401C9.98706 14.7088 10.2524 14.7262 10.5282 14.5913C10.8454 14.4361 10.9573 14.2523 10.9573 13.8867C10.9573 13.6493 10.9417 13.5839 10.8525 13.4492C10.6649 13.1656 10.2552 13.0234 9.94171 13.1331ZM10.0574 13.4042C9.64804 13.5119 9.56999 14.0766 9.93386 14.2984C10.3141 14.5302 10.7809 14.1707 10.6615 13.7381C10.5923 13.4873 10.3178 13.3356 10.0574 13.4042ZM7.69561 16.5039V17.6172H10.0003H12.305V16.5039V15.3906H10.0003H7.69561V16.5039Z" fill="white"/>
</svg>
